<mxfile host="65bd71144e">
    <diagram name="4" id="UoIgVpcNwFTyMaySkeXr">
        <mxGraphModel dx="803" dy="784" grid="1" gridSize="10" guides="1" tooltips="1" connect="1" arrows="1" fold="1" page="1" pageScale="1" pageWidth="827" pageHeight="1169" math="0" shadow="0">
            <root>
                <mxCell id="xRsjw_P2Fypg1GprzXm_-0"/>
                <mxCell id="xRsjw_P2Fypg1GprzXm_-1" parent="xRsjw_P2Fypg1GprzXm_-0"/>
                <mxCell id="xRsjw_P2Fypg1GprzXm_-2" style="edgeStyle=none;html=1;" edge="1" parent="xRsjw_P2Fypg1GprzXm_-1" source="xRsjw_P2Fypg1GprzXm_-3" target="xRsjw_P2Fypg1GprzXm_-6">
                    <mxGeometry relative="1" as="geometry"/>
                </mxCell>
                <mxCell id="xRsjw_P2Fypg1GprzXm_-3" value="A" style="ellipse;whiteSpace=wrap;html=1;aspect=fixed;" vertex="1" parent="xRsjw_P2Fypg1GprzXm_-1">
                    <mxGeometry x="370" y="360" width="80" height="80" as="geometry"/>
                </mxCell>
                <mxCell id="xRsjw_P2Fypg1GprzXm_-4" style="edgeStyle=none;html=1;entryX=0;entryY=0.5;entryDx=0;entryDy=0;" edge="1" parent="xRsjw_P2Fypg1GprzXm_-1" source="xRsjw_P2Fypg1GprzXm_-6" target="xRsjw_P2Fypg1GprzXm_-8">
                    <mxGeometry relative="1" as="geometry"/>
                </mxCell>
                <mxCell id="xRsjw_P2Fypg1GprzXm_-5" style="edgeStyle=none;html=1;exitX=1;exitY=1;exitDx=0;exitDy=0;entryX=0;entryY=0.5;entryDx=0;entryDy=0;" edge="1" parent="xRsjw_P2Fypg1GprzXm_-1" source="xRsjw_P2Fypg1GprzXm_-6" target="xRsjw_P2Fypg1GprzXm_-9">
                    <mxGeometry relative="1" as="geometry"/>
                </mxCell>
                <mxCell id="xRsjw_P2Fypg1GprzXm_-6" value="B" style="ellipse;whiteSpace=wrap;html=1;aspect=fixed;" vertex="1" parent="xRsjw_P2Fypg1GprzXm_-1">
                    <mxGeometry x="520" y="360" width="80" height="80" as="geometry"/>
                </mxCell>
                <mxCell id="xRsjw_P2Fypg1GprzXm_-7" style="edgeStyle=none;html=1;exitX=1;exitY=0.5;exitDx=0;exitDy=0;" edge="1" parent="xRsjw_P2Fypg1GprzXm_-1" source="xRsjw_P2Fypg1GprzXm_-8" target="xRsjw_P2Fypg1GprzXm_-10">
                    <mxGeometry relative="1" as="geometry"/>
                </mxCell>
                <mxCell id="xRsjw_P2Fypg1GprzXm_-8" value="BA" style="ellipse;whiteSpace=wrap;html=1;aspect=fixed;" vertex="1" parent="xRsjw_P2Fypg1GprzXm_-1">
                    <mxGeometry x="650" y="240" width="80" height="80" as="geometry"/>
                </mxCell>
                <mxCell id="xRsjw_P2Fypg1GprzXm_-9" value="BB" style="ellipse;whiteSpace=wrap;html=1;aspect=fixed;" vertex="1" parent="xRsjw_P2Fypg1GprzXm_-1">
                    <mxGeometry x="780" y="430" width="80" height="80" as="geometry"/>
                </mxCell>
                <mxCell id="xRsjw_P2Fypg1GprzXm_-10" value="BC" style="ellipse;whiteSpace=wrap;html=1;aspect=fixed;" vertex="1" parent="xRsjw_P2Fypg1GprzXm_-1">
                    <mxGeometry x="790" y="240" width="80" height="80" as="geometry"/>
                </mxCell>
                <mxCell id="xRsjw_P2Fypg1GprzXm_-11" value="Rama A" style="whiteSpace=wrap;html=1;shape=partialRectangle;top=0;left=0;bottom=1;right=0;points=[[0,1],[1,1]];fillColor=#e3c800;align=center;verticalAlign=bottom;routingCenterY=0.5;snapToPoint=1;recursiveResize=0;autosize=1;treeFolding=1;treeMoving=1;newEdgeStyle={&quot;edgeStyle&quot;:&quot;entityRelationEdgeStyle&quot;,&quot;startArrow&quot;:&quot;none&quot;,&quot;endArrow&quot;:&quot;none&quot;,&quot;segment&quot;:10,&quot;curved&quot;:1,&quot;sourcePerimeterSpacing&quot;:0,&quot;targetPerimeterSpacing&quot;:0};fontColor=#000000;strokeColor=#B09500;" vertex="1" parent="xRsjw_P2Fypg1GprzXm_-1">
                    <mxGeometry x="860" y="150" width="80" height="30" as="geometry"/>
                </mxCell>
                <mxCell id="xRsjw_P2Fypg1GprzXm_-12" value="" style="edgeStyle=entityRelationEdgeStyle;startArrow=none;endArrow=none;segment=10;curved=1;sourcePerimeterSpacing=0;targetPerimeterSpacing=0;exitX=0.5;exitY=0;exitDx=0;exitDy=0;fillColor=#e3c800;strokeColor=#B09500;" edge="1" parent="xRsjw_P2Fypg1GprzXm_-1" source="xRsjw_P2Fypg1GprzXm_-10" target="xRsjw_P2Fypg1GprzXm_-11">
                    <mxGeometry relative="1" as="geometry">
                        <mxPoint x="610" y="420" as="sourcePoint"/>
                    </mxGeometry>
                </mxCell>
                <mxCell id="xRsjw_P2Fypg1GprzXm_-13" value="Rama B" style="whiteSpace=wrap;html=1;shape=partialRectangle;top=0;left=0;bottom=1;right=0;points=[[0,1],[1,1]];fillColor=#1ba1e2;align=center;verticalAlign=bottom;routingCenterY=0.5;snapToPoint=1;recursiveResize=0;autosize=1;treeFolding=1;treeMoving=1;newEdgeStyle={&quot;edgeStyle&quot;:&quot;entityRelationEdgeStyle&quot;,&quot;startArrow&quot;:&quot;none&quot;,&quot;endArrow&quot;:&quot;none&quot;,&quot;segment&quot;:10,&quot;curved&quot;:1,&quot;sourcePerimeterSpacing&quot;:0,&quot;targetPerimeterSpacing&quot;:0};fontColor=#ffffff;strokeColor=#006EAF;" vertex="1" parent="xRsjw_P2Fypg1GprzXm_-1">
                    <mxGeometry x="890" y="370" width="80" height="30" as="geometry"/>
                </mxCell>
                <mxCell id="xRsjw_P2Fypg1GprzXm_-14" value="" style="edgeStyle=entityRelationEdgeStyle;startArrow=none;endArrow=none;segment=10;curved=1;sourcePerimeterSpacing=0;targetPerimeterSpacing=0;exitX=1;exitY=0;exitDx=0;exitDy=0;fillColor=#1ba1e2;strokeColor=#006EAF;" edge="1" parent="xRsjw_P2Fypg1GprzXm_-1" source="xRsjw_P2Fypg1GprzXm_-9" target="xRsjw_P2Fypg1GprzXm_-13">
                    <mxGeometry relative="1" as="geometry">
                        <mxPoint x="610" y="420" as="sourcePoint"/>
                    </mxGeometry>
                </mxCell>
                <mxCell id="xRsjw_P2Fypg1GprzXm_-15" value="" style="endArrow=none;html=1;fillColor=#1ba1e2;strokeColor=#006EAF;" edge="1" parent="xRsjw_P2Fypg1GprzXm_-1">
                    <mxGeometry width="50" height="50" relative="1" as="geometry">
                        <mxPoint x="930" y="430" as="sourcePoint"/>
                        <mxPoint x="930" y="430" as="targetPoint"/>
                        <Array as="points">
                            <mxPoint x="520" y="340"/>
                            <mxPoint x="350" y="330"/>
                            <mxPoint x="350" y="440"/>
                            <mxPoint x="870" y="550"/>
                        </Array>
                    </mxGeometry>
                </mxCell>
                <mxCell id="xRsjw_P2Fypg1GprzXm_-16" value="" style="endArrow=none;html=1;fillColor=#e3c800;strokeColor=#B09500;" edge="1" parent="xRsjw_P2Fypg1GprzXm_-1">
                    <mxGeometry width="50" height="50" relative="1" as="geometry">
                        <mxPoint x="370" y="460" as="sourcePoint"/>
                        <mxPoint x="370" y="460" as="targetPoint"/>
                        <Array as="points">
                            <mxPoint x="560" y="460"/>
                            <mxPoint x="640" y="410"/>
                            <mxPoint x="660" y="350"/>
                            <mxPoint x="870" y="350"/>
                            <mxPoint x="910" y="280"/>
                            <mxPoint x="820" y="210"/>
                            <mxPoint x="620" y="210"/>
                            <mxPoint x="560" y="290"/>
                            <mxPoint x="440" y="320"/>
                            <mxPoint x="340" y="320"/>
                            <mxPoint x="320" y="440"/>
                        </Array>
                    </mxGeometry>
                </mxCell>
            </root>
        </mxGraphModel>
    </diagram>
    <diagram name="3" id="RBA1k4I0XpwJmmL9r-Dd">
        <mxGraphModel grid="1" page="1" gridSize="10" guides="1" tooltips="1" connect="1" arrows="1" fold="1" pageScale="1" pageWidth="827" pageHeight="1169" math="0" shadow="0">
            <root>
                <mxCell id="BzLlhddRaT-8e9xCw_89-0"/>
                <mxCell id="BzLlhddRaT-8e9xCw_89-1" parent="BzLlhddRaT-8e9xCw_89-0"/>
                <mxCell id="BzLlhddRaT-8e9xCw_89-2" style="edgeStyle=none;html=1;" edge="1" parent="BzLlhddRaT-8e9xCw_89-1" source="BzLlhddRaT-8e9xCw_89-3" target="BzLlhddRaT-8e9xCw_89-6">
                    <mxGeometry relative="1" as="geometry"/>
                </mxCell>
                <mxCell id="BzLlhddRaT-8e9xCw_89-3" value="A" style="ellipse;whiteSpace=wrap;html=1;aspect=fixed;" vertex="1" parent="BzLlhddRaT-8e9xCw_89-1">
                    <mxGeometry x="370" y="360" width="80" height="80" as="geometry"/>
                </mxCell>
                <mxCell id="BzLlhddRaT-8e9xCw_89-5" style="edgeStyle=none;html=1;exitX=1;exitY=1;exitDx=0;exitDy=0;entryX=0;entryY=0.5;entryDx=0;entryDy=0;" edge="1" parent="BzLlhddRaT-8e9xCw_89-1" source="BzLlhddRaT-8e9xCw_89-6" target="BzLlhddRaT-8e9xCw_89-9">
                    <mxGeometry relative="1" as="geometry"/>
                </mxCell>
                <mxCell id="BzLlhddRaT-8e9xCw_89-6" value="B" style="ellipse;whiteSpace=wrap;html=1;aspect=fixed;" vertex="1" parent="BzLlhddRaT-8e9xCw_89-1">
                    <mxGeometry x="520" y="360" width="80" height="80" as="geometry"/>
                </mxCell>
                <mxCell id="BzLlhddRaT-8e9xCw_89-9" value="BB" style="ellipse;whiteSpace=wrap;html=1;aspect=fixed;" vertex="1" parent="BzLlhddRaT-8e9xCw_89-1">
                    <mxGeometry x="780" y="430" width="80" height="80" as="geometry"/>
                </mxCell>
                <mxCell id="BzLlhddRaT-8e9xCw_89-11" value="Rama A" style="whiteSpace=wrap;html=1;shape=partialRectangle;top=0;left=0;bottom=1;right=0;points=[[0,1],[1,1]];fillColor=#e3c800;align=center;verticalAlign=bottom;routingCenterY=0.5;snapToPoint=1;recursiveResize=0;autosize=1;treeFolding=1;treeMoving=1;newEdgeStyle={&quot;edgeStyle&quot;:&quot;entityRelationEdgeStyle&quot;,&quot;startArrow&quot;:&quot;none&quot;,&quot;endArrow&quot;:&quot;none&quot;,&quot;segment&quot;:10,&quot;curved&quot;:1,&quot;sourcePerimeterSpacing&quot;:0,&quot;targetPerimeterSpacing&quot;:0};fontColor=#000000;strokeColor=#B09500;" vertex="1" parent="BzLlhddRaT-8e9xCw_89-1">
                    <mxGeometry x="640" y="280" width="80" height="30" as="geometry"/>
                </mxCell>
                <mxCell id="BzLlhddRaT-8e9xCw_89-12" value="" style="edgeStyle=entityRelationEdgeStyle;startArrow=none;endArrow=none;segment=10;curved=1;sourcePerimeterSpacing=0;targetPerimeterSpacing=0;exitX=1;exitY=0;exitDx=0;exitDy=0;fillColor=#e3c800;strokeColor=#B09500;" edge="1" parent="BzLlhddRaT-8e9xCw_89-1" source="BzLlhddRaT-8e9xCw_89-6" target="BzLlhddRaT-8e9xCw_89-11">
                    <mxGeometry relative="1" as="geometry">
                        <mxPoint x="830" y="240" as="sourcePoint"/>
                    </mxGeometry>
                </mxCell>
                <mxCell id="BzLlhddRaT-8e9xCw_89-13" value="Rama B" style="whiteSpace=wrap;html=1;shape=partialRectangle;top=0;left=0;bottom=1;right=0;points=[[0,1],[1,1]];fillColor=#1ba1e2;align=center;verticalAlign=bottom;routingCenterY=0.5;snapToPoint=1;recursiveResize=0;autosize=1;treeFolding=1;treeMoving=1;newEdgeStyle={&quot;edgeStyle&quot;:&quot;entityRelationEdgeStyle&quot;,&quot;startArrow&quot;:&quot;none&quot;,&quot;endArrow&quot;:&quot;none&quot;,&quot;segment&quot;:10,&quot;curved&quot;:1,&quot;sourcePerimeterSpacing&quot;:0,&quot;targetPerimeterSpacing&quot;:0};fontColor=#ffffff;strokeColor=#006EAF;" vertex="1" parent="BzLlhddRaT-8e9xCw_89-1">
                    <mxGeometry x="890" y="370" width="80" height="30" as="geometry"/>
                </mxCell>
                <mxCell id="BzLlhddRaT-8e9xCw_89-14" value="" style="edgeStyle=entityRelationEdgeStyle;startArrow=none;endArrow=none;segment=10;curved=1;sourcePerimeterSpacing=0;targetPerimeterSpacing=0;exitX=1;exitY=0;exitDx=0;exitDy=0;fillColor=#1ba1e2;strokeColor=#006EAF;" edge="1" parent="BzLlhddRaT-8e9xCw_89-1" source="BzLlhddRaT-8e9xCw_89-9" target="BzLlhddRaT-8e9xCw_89-13">
                    <mxGeometry relative="1" as="geometry">
                        <mxPoint x="610" y="420" as="sourcePoint"/>
                    </mxGeometry>
                </mxCell>
                <mxCell id="BzLlhddRaT-8e9xCw_89-15" value="" style="endArrow=none;html=1;fillColor=#1ba1e2;strokeColor=#006EAF;" edge="1" parent="BzLlhddRaT-8e9xCw_89-1">
                    <mxGeometry width="50" height="50" relative="1" as="geometry">
                        <mxPoint x="930" y="430" as="sourcePoint"/>
                        <mxPoint x="930" y="430" as="targetPoint"/>
                        <Array as="points">
                            <mxPoint x="520" y="340"/>
                            <mxPoint x="350" y="330"/>
                            <mxPoint x="350" y="440"/>
                            <mxPoint x="870" y="550"/>
                        </Array>
                    </mxGeometry>
                </mxCell>
                <mxCell id="BzLlhddRaT-8e9xCw_89-16" value="" style="endArrow=none;html=1;fillColor=#e3c800;strokeColor=#B09500;" edge="1" parent="BzLlhddRaT-8e9xCw_89-1">
                    <mxGeometry width="50" height="50" relative="1" as="geometry">
                        <mxPoint x="370" y="460" as="sourcePoint"/>
                        <mxPoint x="370" y="460" as="targetPoint"/>
                        <Array as="points">
                            <mxPoint x="560" y="460"/>
                            <mxPoint x="640" y="410"/>
                            <mxPoint x="660" y="390"/>
                            <mxPoint x="630" y="320"/>
                            <mxPoint x="580" y="320"/>
                            <mxPoint x="440" y="320"/>
                            <mxPoint x="340" y="320"/>
                            <mxPoint x="320" y="440"/>
                        </Array>
                    </mxGeometry>
                </mxCell>
            </root>
        </mxGraphModel>
    </diagram>
    <diagram name="2" id="4Zzl6oSVK7WUtggYZgZQ">
        <mxGraphModel dx="803" dy="784" grid="1" gridSize="10" guides="1" tooltips="1" connect="1" arrows="1" fold="1" page="1" pageScale="1" pageWidth="827" pageHeight="1169" math="0" shadow="0">
            <root>
                <mxCell id="vkQxLAYDDAaQ5Vv7ar5j-0"/>
                <mxCell id="vkQxLAYDDAaQ5Vv7ar5j-1" parent="vkQxLAYDDAaQ5Vv7ar5j-0"/>
                <mxCell id="vkQxLAYDDAaQ5Vv7ar5j-2" style="edgeStyle=none;html=1;" edge="1" parent="vkQxLAYDDAaQ5Vv7ar5j-1" source="vkQxLAYDDAaQ5Vv7ar5j-3" target="vkQxLAYDDAaQ5Vv7ar5j-6">
                    <mxGeometry relative="1" as="geometry"/>
                </mxCell>
                <mxCell id="vkQxLAYDDAaQ5Vv7ar5j-3" value="A" style="ellipse;whiteSpace=wrap;html=1;aspect=fixed;" vertex="1" parent="vkQxLAYDDAaQ5Vv7ar5j-1">
                    <mxGeometry x="370" y="360" width="80" height="80" as="geometry"/>
                </mxCell>
                <mxCell id="vkQxLAYDDAaQ5Vv7ar5j-6" value="B" style="ellipse;whiteSpace=wrap;html=1;aspect=fixed;" vertex="1" parent="vkQxLAYDDAaQ5Vv7ar5j-1">
                    <mxGeometry x="520" y="360" width="80" height="80" as="geometry"/>
                </mxCell>
                <mxCell id="vkQxLAYDDAaQ5Vv7ar5j-11" value="Rama A" style="whiteSpace=wrap;html=1;shape=partialRectangle;top=0;left=0;bottom=1;right=0;points=[[0,1],[1,1]];fillColor=#e3c800;align=center;verticalAlign=bottom;routingCenterY=0.5;snapToPoint=1;recursiveResize=0;autosize=1;treeFolding=1;treeMoving=1;newEdgeStyle={&quot;edgeStyle&quot;:&quot;entityRelationEdgeStyle&quot;,&quot;startArrow&quot;:&quot;none&quot;,&quot;endArrow&quot;:&quot;none&quot;,&quot;segment&quot;:10,&quot;curved&quot;:1,&quot;sourcePerimeterSpacing&quot;:0,&quot;targetPerimeterSpacing&quot;:0};fontColor=#000000;strokeColor=#B09500;" vertex="1" parent="vkQxLAYDDAaQ5Vv7ar5j-1">
                    <mxGeometry x="620" y="280" width="80" height="30" as="geometry"/>
                </mxCell>
                <mxCell id="vkQxLAYDDAaQ5Vv7ar5j-12" value="" style="edgeStyle=entityRelationEdgeStyle;startArrow=none;endArrow=none;segment=10;curved=1;sourcePerimeterSpacing=0;targetPerimeterSpacing=0;exitX=1;exitY=0;exitDx=0;exitDy=0;fillColor=#e3c800;strokeColor=#B09500;" edge="1" parent="vkQxLAYDDAaQ5Vv7ar5j-1" source="vkQxLAYDDAaQ5Vv7ar5j-6" target="vkQxLAYDDAaQ5Vv7ar5j-11">
                    <mxGeometry relative="1" as="geometry">
                        <mxPoint x="830" y="240" as="sourcePoint"/>
                    </mxGeometry>
                </mxCell>
                <mxCell id="vkQxLAYDDAaQ5Vv7ar5j-13" value="Rama B" style="whiteSpace=wrap;html=1;shape=partialRectangle;top=0;left=0;bottom=1;right=0;points=[[0,1],[1,1]];fillColor=#1ba1e2;align=center;verticalAlign=bottom;routingCenterY=0.5;snapToPoint=1;recursiveResize=0;autosize=1;treeFolding=1;treeMoving=1;newEdgeStyle={&quot;edgeStyle&quot;:&quot;entityRelationEdgeStyle&quot;,&quot;startArrow&quot;:&quot;none&quot;,&quot;endArrow&quot;:&quot;none&quot;,&quot;segment&quot;:10,&quot;curved&quot;:1,&quot;sourcePerimeterSpacing&quot;:0,&quot;targetPerimeterSpacing&quot;:0};fontColor=#ffffff;strokeColor=#006EAF;" vertex="1" parent="vkQxLAYDDAaQ5Vv7ar5j-1">
                    <mxGeometry x="660" y="380" width="80" height="30" as="geometry"/>
                </mxCell>
                <mxCell id="vkQxLAYDDAaQ5Vv7ar5j-14" value="" style="edgeStyle=entityRelationEdgeStyle;startArrow=none;endArrow=none;segment=10;curved=1;sourcePerimeterSpacing=0;targetPerimeterSpacing=0;exitX=1;exitY=1;exitDx=0;exitDy=0;fillColor=#1ba1e2;strokeColor=#006EAF;" edge="1" parent="vkQxLAYDDAaQ5Vv7ar5j-1" source="vkQxLAYDDAaQ5Vv7ar5j-6" target="vkQxLAYDDAaQ5Vv7ar5j-13">
                    <mxGeometry relative="1" as="geometry">
                        <mxPoint x="848.2842712474621" y="441.71572875253787" as="sourcePoint"/>
                    </mxGeometry>
                </mxCell>
                <mxCell id="vkQxLAYDDAaQ5Vv7ar5j-15" value="" style="endArrow=none;html=1;fillColor=#1ba1e2;strokeColor=#006EAF;" edge="1" parent="vkQxLAYDDAaQ5Vv7ar5j-1">
                    <mxGeometry width="50" height="50" relative="1" as="geometry">
                        <mxPoint x="620" y="340" as="sourcePoint"/>
                        <mxPoint x="620" y="340" as="targetPoint"/>
                        <Array as="points">
                            <mxPoint x="520" y="340"/>
                            <mxPoint x="350" y="330"/>
                            <mxPoint x="350" y="440"/>
                            <mxPoint x="630" y="450"/>
                        </Array>
                    </mxGeometry>
                </mxCell>
                <mxCell id="vkQxLAYDDAaQ5Vv7ar5j-16" value="" style="endArrow=none;html=1;fillColor=#e3c800;strokeColor=#B09500;" edge="1" parent="vkQxLAYDDAaQ5Vv7ar5j-1">
                    <mxGeometry width="50" height="50" relative="1" as="geometry">
                        <mxPoint x="370" y="460" as="sourcePoint"/>
                        <mxPoint x="370" y="460" as="targetPoint"/>
                        <Array as="points">
                            <mxPoint x="560" y="460"/>
                            <mxPoint x="610" y="470"/>
                            <mxPoint x="650" y="470"/>
                            <mxPoint x="650" y="420"/>
                            <mxPoint x="650" y="360"/>
                            <mxPoint x="570" y="350"/>
                            <mxPoint x="480" y="350"/>
                            <mxPoint x="340" y="320"/>
                            <mxPoint x="320" y="440"/>
                        </Array>
                    </mxGeometry>
                </mxCell>
            </root>
        </mxGraphModel>
    </diagram>
    <diagram id="GmrBZ_vaHosxTlMUpGkN" name="1">
        <mxGraphModel dx="803" dy="784" grid="1" gridSize="10" guides="1" tooltips="1" connect="1" arrows="1" fold="1" page="1" pageScale="1" pageWidth="827" pageHeight="1169" math="0" shadow="0">
            <root>
                <mxCell id="0"/>
                <mxCell id="1" parent="0"/>
                <mxCell id="7" style="edgeStyle=none;html=1;" edge="1" parent="1" source="2" target="3">
                    <mxGeometry relative="1" as="geometry"/>
                </mxCell>
                <mxCell id="2" value="A" style="ellipse;whiteSpace=wrap;html=1;aspect=fixed;" vertex="1" parent="1">
                    <mxGeometry x="370" y="360" width="80" height="80" as="geometry"/>
                </mxCell>
                <mxCell id="3" value="B" style="ellipse;whiteSpace=wrap;html=1;aspect=fixed;" vertex="1" parent="1">
                    <mxGeometry x="520" y="360" width="80" height="80" as="geometry"/>
                </mxCell>
                <mxCell id="11" value="Rama A" style="whiteSpace=wrap;html=1;shape=partialRectangle;top=0;left=0;bottom=1;right=0;points=[[0,1],[1,1]];fillColor=#e3c800;align=center;verticalAlign=bottom;routingCenterY=0.5;snapToPoint=1;recursiveResize=0;autosize=1;treeFolding=1;treeMoving=1;newEdgeStyle={&quot;edgeStyle&quot;:&quot;entityRelationEdgeStyle&quot;,&quot;startArrow&quot;:&quot;none&quot;,&quot;endArrow&quot;:&quot;none&quot;,&quot;segment&quot;:10,&quot;curved&quot;:1,&quot;sourcePerimeterSpacing&quot;:0,&quot;targetPerimeterSpacing&quot;:0};fontColor=#000000;strokeColor=#B09500;" vertex="1" parent="1">
                    <mxGeometry x="630" y="260" width="80" height="30" as="geometry"/>
                </mxCell>
                <mxCell id="12" value="" style="edgeStyle=entityRelationEdgeStyle;startArrow=none;endArrow=none;segment=10;curved=1;sourcePerimeterSpacing=0;targetPerimeterSpacing=0;exitX=1;exitY=0;exitDx=0;exitDy=0;fillColor=#e3c800;strokeColor=#B09500;" edge="1" target="11" parent="1" source="3">
                    <mxGeometry relative="1" as="geometry">
                        <mxPoint x="830" y="240" as="sourcePoint"/>
                    </mxGeometry>
                </mxCell>
                <mxCell id="19" value="" style="endArrow=none;html=1;fillColor=#e3c800;strokeColor=#B09500;" edge="1" parent="1">
                    <mxGeometry width="50" height="50" relative="1" as="geometry">
                        <mxPoint x="370" y="460" as="sourcePoint"/>
                        <mxPoint x="370" y="460" as="targetPoint"/>
                        <Array as="points">
                            <mxPoint x="560" y="460"/>
                            <mxPoint x="620" y="450"/>
                            <mxPoint x="650" y="440"/>
                            <mxPoint x="640" y="340"/>
                            <mxPoint x="560" y="320"/>
                            <mxPoint x="440" y="320"/>
                            <mxPoint x="340" y="320"/>
                            <mxPoint x="320" y="440"/>
                        </Array>
                    </mxGeometry>
                </mxCell>
            </root>
        </mxGraphModel>
    </diagram>
</mxfile>
